{
	"asset":{
		"generator":"Khronos glTF Blender I/O v4.1.62",
		"version":"2.0"
	},
	"scene":0,
	"scenes":[
		{
			"name":"Scene",
			"nodes":[
				0
			]
		}
	],
	"nodes":[
		{
			"mesh":0,
			"name":"shooting_enemy_ship"
		}
	],
	"materials":[
		{
			"doubleSided":true,
			"name":"material_black",
			"pbrMetallicRoughness":{
				"baseColorFactor":[
					0.008023137226700783,
					0.008568133227527142,
					0.010329825803637505,
					1
				],
				"metallicFactor":0,
				"roughnessFactor":0.5
			}
		},
		{
			"doubleSided":true,
			"name":"material_white",
			"pbrMetallicRoughness":{
				"baseColorFactor":[
					0.955967128276825,
					0.9822514057159424,
					1,
					1
				],
				"metallicFactor":0,
				"roughnessFactor":0.5
			}
		},
		{
			"doubleSided":true,
			"name":"material_dark_sky_blue",
			"pbrMetallicRoughness":{
				"baseColorFactor":[
					0.01680712029337883,
					0.06662598997354507,
					0.17788846790790558,
					1
				],
				"metallicFactor":0,
				"roughnessFactor":0.5
			}
		},
		{
			"doubleSided":true,
			"name":"material_light_sky_blue",
			"pbrMetallicRoughness":{
				"baseColorFactor":[
					0.1384301483631134,
					0.4232679009437561,
					0.658375084400177,
					1
				],
				"metallicFactor":0,
				"roughnessFactor":0.5
			}
		}
	],
	"meshes":[
		{
			"name":"Cube.013",
			"primitives":[
				{
					"attributes":{
						"POSITION":0,
						"NORMAL":1,
						"TEXCOORD_0":2
					},
					"indices":3,
					"material":0
				},
				{
					"attributes":{
						"POSITION":4,
						"NORMAL":5,
						"TEXCOORD_0":6
					},
					"indices":7,
					"material":1
				},
				{
					"attributes":{
						"POSITION":8,
						"NORMAL":9,
						"TEXCOORD_0":10
					},
					"indices":11,
					"material":2
				},
				{
					"attributes":{
						"POSITION":12,
						"NORMAL":13,
						"TEXCOORD_0":14
					},
					"indices":15,
					"material":3
				}
			]
		}
	],
	"accessors":[
		{
			"bufferView":0,
			"componentType":5126,
			"count":9,
			"max":[
				-1.5499305725097656,
				0.30544349551200867,
				0.375
			],
			"min":[
				-1.5499305725097656,
				-0.30544349551200867,
				-0.375
			],
			"type":"VEC3"
		},
		{
			"bufferView":1,
			"componentType":5126,
			"count":9,
			"type":"VEC3"
		},
		{
			"bufferView":2,
			"componentType":5126,
			"count":9,
			"type":"VEC2"
		},
		{
			"bufferView":3,
			"componentType":5123,
			"count":24,
			"type":"SCALAR"
		},
		{
			"bufferView":4,
			"componentType":5126,
			"count":14,
			"max":[
				-1,
				1,
				0.4999999701976776
			],
			"min":[
				-1.5499305725097656,
				0.30544349551200867,
				-0.4999999701976776
			],
			"type":"VEC3"
		},
		{
			"bufferView":5,
			"componentType":5126,
			"count":14,
			"type":"VEC3"
		},
		{
			"bufferView":6,
			"componentType":5126,
			"count":14,
			"type":"VEC2"
		},
		{
			"bufferView":7,
			"componentType":5123,
			"count":24,
			"type":"SCALAR"
		},
		{
			"bufferView":8,
			"componentType":5126,
			"count":84,
			"max":[
				2,
				0.5,
				2.25
			],
			"min":[
				-1.5499305725097656,
				-0.5,
				-2.25
			],
			"type":"VEC3"
		},
		{
			"bufferView":9,
			"componentType":5126,
			"count":84,
			"type":"VEC3"
		},
		{
			"bufferView":10,
			"componentType":5126,
			"count":84,
			"type":"VEC2"
		},
		{
			"bufferView":11,
			"componentType":5123,
			"count":144,
			"type":"SCALAR"
		},
		{
			"bufferView":12,
			"componentType":5126,
			"count":118,
			"max":[
				1.25,
				1,
				1.25
			],
			"min":[
				-1.5499305725097656,
				-1,
				-1.25
			],
			"type":"VEC3"
		},
		{
			"bufferView":13,
			"componentType":5126,
			"count":118,
			"type":"VEC3"
		},
		{
			"bufferView":14,
			"componentType":5126,
			"count":118,
			"type":"VEC2"
		},
		{
			"bufferView":15,
			"componentType":5123,
			"count":216,
			"type":"SCALAR"
		}
	],
	"bufferViews":[
		{
			"buffer":0,
			"byteLength":108,
			"byteOffset":0,
			"target":34962
		},
		{
			"buffer":0,
			"byteLength":108,
			"byteOffset":108,
			"target":34962
		},
		{
			"buffer":0,
			"byteLength":72,
			"byteOffset":216,
			"target":34962
		},
		{
			"buffer":0,
			"byteLength":48,
			"byteOffset":288,
			"target":34963
		},
		{
			"buffer":0,
			"byteLength":168,
			"byteOffset":336,
			"target":34962
		},
		{
			"buffer":0,
			"byteLength":168,
			"byteOffset":504,
			"target":34962
		},
		{
			"buffer":0,
			"byteLength":112,
			"byteOffset":672,
			"target":34962
		},
		{
			"buffer":0,
			"byteLength":48,
			"byteOffset":784,
			"target":34963
		},
		{
			"buffer":0,
			"byteLength":1008,
			"byteOffset":832,
			"target":34962
		},
		{
			"buffer":0,
			"byteLength":1008,
			"byteOffset":1840,
			"target":34962
		},
		{
			"buffer":0,
			"byteLength":672,
			"byteOffset":2848,
			"target":34962
		},
		{
			"buffer":0,
			"byteLength":288,
			"byteOffset":3520,
			"target":34963
		},
		{
			"buffer":0,
			"byteLength":1416,
			"byteOffset":3808,
			"target":34962
		},
		{
			"buffer":0,
			"byteLength":1416,
			"byteOffset":5224,
			"target":34962
		},
		{
			"buffer":0,
			"byteLength":944,
			"byteOffset":6640,
			"target":34962
		},
		{
			"buffer":0,
			"byteLength":432,
			"byteOffset":7584,
			"target":34963
		}
	],
	"buffers":[
		{
			"byteLength":8016,
			"uri":"enemy_shooting_ship.bin"
		}
	]
}
