{
	"asset":{
		"generator":"Khronos glTF Blender I/O v4.1.62",
		"version":"2.0"
	},
	"scene":0,
	"scenes":[
		{
			"name":"Scene",
			"nodes":[
				0,
				1,
				2,
				3,
				4
			]
		}
	],
	"nodes":[
		{
			"mesh":0,
			"name":"enemy_swallower_a",
			"scale":[
				2,
				2,
				2
			]
		},
		{
			"mesh":1,
			"name":"enemy_swallower_b",
			"scale":[
				1.7999999523162842,
				1.7999999523162842,
				1.7999999523162842
			],
			"translation":[
				0,
				4,
				0
			]
		},
		{
			"mesh":2,
			"name":"enemy_swallower_c",
			"scale":[
				1.619999885559082,
				1.7999999523162842,
				1.619999885559082
			],
			"translation":[
				0,
				8,
				0
			]
		},
		{
			"mesh":3,
			"name":"enemy_swallower_d",
			"scale":[
				1.4579998254776,
				1.7999999523162842,
				1.4579998254776
			],
			"translation":[
				0,
				12,
				0
			]
		},
		{
			"mesh":4,
			"name":"enemy_swallower_e",
			"scale":[
				1.749599814414978,
				1.7999999523162842,
				1.749599814414978
			],
			"translation":[
				0,
				16,
				0
			]
		}
	],
	"materials":[
		{
			"doubleSided":true,
			"name":"material_dark_red",
			"pbrMetallicRoughness":{
				"baseColorFactor":[
					0.2122296541929245,
					0.0018211320275440812,
					0.015996303409337997,
					1
				],
				"metallicFactor":0,
				"roughnessFactor":0.5
			}
		},
		{
			"doubleSided":true,
			"name":"material_bright_red",
			"pbrMetallicRoughness":{
				"baseColorFactor":[
					0.6724398732185364,
					0.01764189638197422,
					0.0056054117158055305,
					1
				],
				"metallicFactor":0,
				"roughnessFactor":0.5
			}
		},
		{
			"doubleSided":true,
			"name":"material_black",
			"pbrMetallicRoughness":{
				"baseColorFactor":[
					0.008023137226700783,
					0.008568133227527142,
					0.010329825803637505,
					1
				],
				"metallicFactor":0,
				"roughnessFactor":0.5
			}
		},
		{
			"doubleSided":true,
			"name":"material_white",
			"pbrMetallicRoughness":{
				"baseColorFactor":[
					0.955967128276825,
					0.9822514057159424,
					1,
					1
				],
				"metallicFactor":0,
				"roughnessFactor":0.5
			}
		}
	],
	"meshes":[
		{
			"name":"Cube.016",
			"primitives":[
				{
					"attributes":{
						"POSITION":0,
						"NORMAL":1,
						"TEXCOORD_0":2
					},
					"indices":3,
					"material":0
				},
				{
					"attributes":{
						"POSITION":4,
						"NORMAL":5,
						"TEXCOORD_0":6
					},
					"indices":7,
					"material":1
				}
			]
		},
		{
			"name":"Cube.032",
			"primitives":[
				{
					"attributes":{
						"POSITION":8,
						"NORMAL":9,
						"TEXCOORD_0":10
					},
					"indices":3,
					"material":0
				},
				{
					"attributes":{
						"POSITION":11,
						"NORMAL":12,
						"TEXCOORD_0":13
					},
					"indices":7,
					"material":1
				}
			]
		},
		{
			"name":"Cube.034",
			"primitives":[
				{
					"attributes":{
						"POSITION":14,
						"NORMAL":15,
						"TEXCOORD_0":16
					},
					"indices":3,
					"material":0
				},
				{
					"attributes":{
						"POSITION":17,
						"NORMAL":18,
						"TEXCOORD_0":19
					},
					"indices":7,
					"material":1
				}
			]
		},
		{
			"name":"Cube.035",
			"primitives":[
				{
					"attributes":{
						"POSITION":20,
						"NORMAL":21,
						"TEXCOORD_0":22
					},
					"indices":3,
					"material":0
				},
				{
					"attributes":{
						"POSITION":23,
						"NORMAL":24,
						"TEXCOORD_0":25
					},
					"indices":7,
					"material":1
				}
			]
		},
		{
			"name":"Cube.036",
			"primitives":[
				{
					"attributes":{
						"POSITION":26,
						"NORMAL":27,
						"TEXCOORD_0":28
					},
					"indices":29,
					"material":2
				},
				{
					"attributes":{
						"POSITION":30,
						"NORMAL":31,
						"TEXCOORD_0":32
					},
					"indices":33,
					"material":0
				},
				{
					"attributes":{
						"POSITION":34,
						"NORMAL":35,
						"TEXCOORD_0":36
					},
					"indices":37,
					"material":1
				},
				{
					"attributes":{
						"POSITION":38,
						"NORMAL":39,
						"TEXCOORD_0":40
					},
					"indices":41,
					"material":3
				}
			]
		}
	],
	"accessors":[
		{
			"bufferView":0,
			"componentType":5126,
			"count":20,
			"max":[
				1.5,
				2,
				1.5
			],
			"min":[
				-1.5,
				1,
				-1.5
			],
			"type":"VEC3"
		},
		{
			"bufferView":1,
			"componentType":5126,
			"count":20,
			"type":"VEC3"
		},
		{
			"bufferView":2,
			"componentType":5126,
			"count":20,
			"type":"VEC2"
		},
		{
			"bufferView":3,
			"componentType":5123,
			"count":30,
			"type":"SCALAR"
		},
		{
			"bufferView":4,
			"componentType":5126,
			"count":20,
			"max":[
				1.5,
				1,
				1.5
			],
			"min":[
				-1.5,
				0,
				-1.5
			],
			"type":"VEC3"
		},
		{
			"bufferView":5,
			"componentType":5126,
			"count":20,
			"type":"VEC3"
		},
		{
			"bufferView":6,
			"componentType":5126,
			"count":20,
			"type":"VEC2"
		},
		{
			"bufferView":7,
			"componentType":5123,
			"count":30,
			"type":"SCALAR"
		},
		{
			"bufferView":8,
			"componentType":5126,
			"count":20,
			"max":[
				1.5,
				2.222222328186035,
				1.5
			],
			"min":[
				-1.5,
				1.1111109256744385,
				-1.5
			],
			"type":"VEC3"
		},
		{
			"bufferView":9,
			"componentType":5126,
			"count":20,
			"type":"VEC3"
		},
		{
			"bufferView":10,
			"componentType":5126,
			"count":20,
			"type":"VEC2"
		},
		{
			"bufferView":11,
			"componentType":5126,
			"count":20,
			"max":[
				1.5,
				1.1111109256744385,
				1.5
			],
			"min":[
				-1.5,
				0,
				-1.5
			],
			"type":"VEC3"
		},
		{
			"bufferView":12,
			"componentType":5126,
			"count":20,
			"type":"VEC3"
		},
		{
			"bufferView":13,
			"componentType":5126,
			"count":20,
			"type":"VEC2"
		},
		{
			"bufferView":14,
			"componentType":5126,
			"count":20,
			"max":[
				1.5,
				2.222222328186035,
				1.5
			],
			"min":[
				-1.5,
				1.1111109256744385,
				-1.5
			],
			"type":"VEC3"
		},
		{
			"bufferView":15,
			"componentType":5126,
			"count":20,
			"type":"VEC3"
		},
		{
			"bufferView":16,
			"componentType":5126,
			"count":20,
			"type":"VEC2"
		},
		{
			"bufferView":17,
			"componentType":5126,
			"count":20,
			"max":[
				1.5,
				1.1111109256744385,
				1.5
			],
			"min":[
				-1.5,
				0,
				-1.5
			],
			"type":"VEC3"
		},
		{
			"bufferView":18,
			"componentType":5126,
			"count":20,
			"type":"VEC3"
		},
		{
			"bufferView":19,
			"componentType":5126,
			"count":20,
			"type":"VEC2"
		},
		{
			"bufferView":20,
			"componentType":5126,
			"count":20,
			"max":[
				1.5,
				2.222222328186035,
				1.5
			],
			"min":[
				-1.5,
				1.1111109256744385,
				-1.5
			],
			"type":"VEC3"
		},
		{
			"bufferView":21,
			"componentType":5126,
			"count":20,
			"type":"VEC3"
		},
		{
			"bufferView":22,
			"componentType":5126,
			"count":20,
			"type":"VEC2"
		},
		{
			"bufferView":23,
			"componentType":5126,
			"count":20,
			"max":[
				1.5,
				1.1111109256744385,
				1.5
			],
			"min":[
				-1.5,
				0,
				-1.5
			],
			"type":"VEC3"
		},
		{
			"bufferView":24,
			"componentType":5126,
			"count":20,
			"type":"VEC3"
		},
		{
			"bufferView":25,
			"componentType":5126,
			"count":20,
			"type":"VEC2"
		},
		{
			"bufferView":26,
			"componentType":5126,
			"count":9,
			"max":[
				0.5600000023841858,
				1.388888955116272,
				0.5600000023841858
			],
			"min":[
				-0.5600000023841858,
				1.388888955116272,
				-0.5600000023841858
			],
			"type":"VEC3"
		},
		{
			"bufferView":27,
			"componentType":5126,
			"count":9,
			"type":"VEC3"
		},
		{
			"bufferView":28,
			"componentType":5126,
			"count":9,
			"type":"VEC2"
		},
		{
			"bufferView":29,
			"componentType":5123,
			"count":24,
			"type":"SCALAR"
		},
		{
			"bufferView":30,
			"componentType":5126,
			"count":132,
			"max":[
				1.5,
				2.222222328186035,
				1.5
			],
			"min":[
				-1.5,
				1.1111109256744385,
				-1.5
			],
			"type":"VEC3"
		},
		{
			"bufferView":31,
			"componentType":5126,
			"count":132,
			"type":"VEC3"
		},
		{
			"bufferView":32,
			"componentType":5126,
			"count":132,
			"type":"VEC2"
		},
		{
			"bufferView":33,
			"componentType":5123,
			"count":288,
			"type":"SCALAR"
		},
		{
			"bufferView":34,
			"componentType":5126,
			"count":105,
			"max":[
				1.5,
				1.1111109256744385,
				1.5
			],
			"min":[
				-1.5,
				0,
				-1.5
			],
			"type":"VEC3"
		},
		{
			"bufferView":35,
			"componentType":5126,
			"count":105,
			"type":"VEC3"
		},
		{
			"bufferView":36,
			"componentType":5126,
			"count":105,
			"type":"VEC2"
		},
		{
			"bufferView":37,
			"componentType":5123,
			"count":360,
			"type":"SCALAR"
		},
		{
			"bufferView":38,
			"componentType":5126,
			"count":36,
			"max":[
				1.399999976158142,
				2.222222328186035,
				1.399999976158142
			],
			"min":[
				-1.399999976158142,
				1.388888955116272,
				-1.399999976158142
			],
			"type":"VEC3"
		},
		{
			"bufferView":39,
			"componentType":5126,
			"count":36,
			"type":"VEC3"
		},
		{
			"bufferView":40,
			"componentType":5126,
			"count":36,
			"type":"VEC2"
		},
		{
			"bufferView":41,
			"componentType":5123,
			"count":48,
			"type":"SCALAR"
		}
	],
	"bufferViews":[
		{
			"buffer":0,
			"byteLength":240,
			"byteOffset":0,
			"target":34962
		},
		{
			"buffer":0,
			"byteLength":240,
			"byteOffset":240,
			"target":34962
		},
		{
			"buffer":0,
			"byteLength":160,
			"byteOffset":480,
			"target":34962
		},
		{
			"buffer":0,
			"byteLength":60,
			"byteOffset":640,
			"target":34963
		},
		{
			"buffer":0,
			"byteLength":240,
			"byteOffset":700,
			"target":34962
		},
		{
			"buffer":0,
			"byteLength":240,
			"byteOffset":940,
			"target":34962
		},
		{
			"buffer":0,
			"byteLength":160,
			"byteOffset":1180,
			"target":34962
		},
		{
			"buffer":0,
			"byteLength":60,
			"byteOffset":1340,
			"target":34963
		},
		{
			"buffer":0,
			"byteLength":240,
			"byteOffset":1400,
			"target":34962
		},
		{
			"buffer":0,
			"byteLength":240,
			"byteOffset":1640,
			"target":34962
		},
		{
			"buffer":0,
			"byteLength":160,
			"byteOffset":1880,
			"target":34962
		},
		{
			"buffer":0,
			"byteLength":240,
			"byteOffset":2040,
			"target":34962
		},
		{
			"buffer":0,
			"byteLength":240,
			"byteOffset":2280,
			"target":34962
		},
		{
			"buffer":0,
			"byteLength":160,
			"byteOffset":2520,
			"target":34962
		},
		{
			"buffer":0,
			"byteLength":240,
			"byteOffset":2680,
			"target":34962
		},
		{
			"buffer":0,
			"byteLength":240,
			"byteOffset":2920,
			"target":34962
		},
		{
			"buffer":0,
			"byteLength":160,
			"byteOffset":3160,
			"target":34962
		},
		{
			"buffer":0,
			"byteLength":240,
			"byteOffset":3320,
			"target":34962
		},
		{
			"buffer":0,
			"byteLength":240,
			"byteOffset":3560,
			"target":34962
		},
		{
			"buffer":0,
			"byteLength":160,
			"byteOffset":3800,
			"target":34962
		},
		{
			"buffer":0,
			"byteLength":240,
			"byteOffset":3960,
			"target":34962
		},
		{
			"buffer":0,
			"byteLength":240,
			"byteOffset":4200,
			"target":34962
		},
		{
			"buffer":0,
			"byteLength":160,
			"byteOffset":4440,
			"target":34962
		},
		{
			"buffer":0,
			"byteLength":240,
			"byteOffset":4600,
			"target":34962
		},
		{
			"buffer":0,
			"byteLength":240,
			"byteOffset":4840,
			"target":34962
		},
		{
			"buffer":0,
			"byteLength":160,
			"byteOffset":5080,
			"target":34962
		},
		{
			"buffer":0,
			"byteLength":108,
			"byteOffset":5240,
			"target":34962
		},
		{
			"buffer":0,
			"byteLength":108,
			"byteOffset":5348,
			"target":34962
		},
		{
			"buffer":0,
			"byteLength":72,
			"byteOffset":5456,
			"target":34962
		},
		{
			"buffer":0,
			"byteLength":48,
			"byteOffset":5528,
			"target":34963
		},
		{
			"buffer":0,
			"byteLength":1584,
			"byteOffset":5576,
			"target":34962
		},
		{
			"buffer":0,
			"byteLength":1584,
			"byteOffset":7160,
			"target":34962
		},
		{
			"buffer":0,
			"byteLength":1056,
			"byteOffset":8744,
			"target":34962
		},
		{
			"buffer":0,
			"byteLength":576,
			"byteOffset":9800,
			"target":34963
		},
		{
			"buffer":0,
			"byteLength":1260,
			"byteOffset":10376,
			"target":34962
		},
		{
			"buffer":0,
			"byteLength":1260,
			"byteOffset":11636,
			"target":34962
		},
		{
			"buffer":0,
			"byteLength":840,
			"byteOffset":12896,
			"target":34962
		},
		{
			"buffer":0,
			"byteLength":720,
			"byteOffset":13736,
			"target":34963
		},
		{
			"buffer":0,
			"byteLength":432,
			"byteOffset":14456,
			"target":34962
		},
		{
			"buffer":0,
			"byteLength":432,
			"byteOffset":14888,
			"target":34962
		},
		{
			"buffer":0,
			"byteLength":288,
			"byteOffset":15320,
			"target":34962
		},
		{
			"buffer":0,
			"byteLength":96,
			"byteOffset":15608,
			"target":34963
		}
	],
	"buffers":[
		{
			"byteLength":15704,
			"uri":"enemy_swallower.bin"
		}
	]
}
