{
	"asset":{
		"generator":"Khronos glTF Blender I/O v4.1.62",
		"version":"2.0"
	},
	"scene":0,
	"scenes":[
		{
			"name":"Scene",
			"nodes":[
				0
			]
		}
	],
	"nodes":[
		{
			"mesh":0,
			"name":"suicide_drone"
		}
	],
	"materials":[
		{
			"doubleSided":true,
			"name":"material_dark_red",
			"pbrMetallicRoughness":{
				"baseColorFactor":[
					0.2122296541929245,
					0.0018211320275440812,
					0.015996303409337997,
					1
				],
				"metallicFactor":0,
				"roughnessFactor":0.5
			}
		},
		{
			"doubleSided":true,
			"name":"material_bright_red",
			"pbrMetallicRoughness":{
				"baseColorFactor":[
					0.6724398732185364,
					0.01764189638197422,
					0.0056054117158055305,
					1
				],
				"metallicFactor":0,
				"roughnessFactor":0.5
			}
		},
		{
			"doubleSided":true,
			"name":"material_white",
			"pbrMetallicRoughness":{
				"baseColorFactor":[
					0.955967128276825,
					0.9822514057159424,
					1,
					1
				],
				"metallicFactor":0,
				"roughnessFactor":0.5
			}
		},
		{
			"doubleSided":true,
			"name":"material_violet",
			"pbrMetallicRoughness":{
				"baseColorFactor":[
					0.05612812936306,
					0,
					0.13563339412212372,
					1
				],
				"metallicFactor":0,
				"roughnessFactor":0.5
			}
		},
		{
			"doubleSided":true,
			"name":"material_light_sky_blue",
			"pbrMetallicRoughness":{
				"baseColorFactor":[
					0.1384301483631134,
					0.4232679009437561,
					0.658375084400177,
					1
				],
				"metallicFactor":0,
				"roughnessFactor":0.5
			}
		}
	],
	"meshes":[
		{
			"name":"Cube.023",
			"primitives":[
				{
					"attributes":{
						"POSITION":0,
						"NORMAL":1,
						"TEXCOORD_0":2
					},
					"indices":3,
					"material":0
				},
				{
					"attributes":{
						"POSITION":4,
						"NORMAL":5,
						"TEXCOORD_0":6
					},
					"indices":7,
					"material":1
				},
				{
					"attributes":{
						"POSITION":8,
						"NORMAL":9,
						"TEXCOORD_0":10
					},
					"indices":11,
					"material":2
				},
				{
					"attributes":{
						"POSITION":12,
						"NORMAL":13,
						"TEXCOORD_0":14
					},
					"indices":15,
					"material":3
				},
				{
					"attributes":{
						"POSITION":16,
						"NORMAL":17,
						"TEXCOORD_0":18
					},
					"indices":19,
					"material":4
				}
			]
		}
	],
	"accessors":[
		{
			"bufferView":0,
			"componentType":5126,
			"count":32,
			"max":[
				0.4688108563423157,
				0.2640624940395355,
				0.7177762985229492
			],
			"min":[
				-0.3311891555786133,
				-0.2640624940395355,
				-0.7177762985229492
			],
			"type":"VEC3"
		},
		{
			"bufferView":1,
			"componentType":5126,
			"count":32,
			"type":"VEC3"
		},
		{
			"bufferView":2,
			"componentType":5126,
			"count":32,
			"type":"VEC2"
		},
		{
			"bufferView":3,
			"componentType":5123,
			"count":48,
			"type":"SCALAR"
		},
		{
			"bufferView":4,
			"componentType":5126,
			"count":89,
			"max":[
				1,
				0.21718749403953552,
				0.6552762985229492
			],
			"min":[
				-1,
				-0.21718749403953552,
				-0.6552762985229492
			],
			"type":"VEC3"
		},
		{
			"bufferView":5,
			"componentType":5126,
			"count":89,
			"type":"VEC3"
		},
		{
			"bufferView":6,
			"componentType":5126,
			"count":89,
			"type":"VEC2"
		},
		{
			"bufferView":7,
			"componentType":5123,
			"count":192,
			"type":"SCALAR"
		},
		{
			"bufferView":8,
			"componentType":5126,
			"count":380,
			"max":[
				1,
				0.2640624940395355,
				0.7177762985229492
			],
			"min":[
				-1,
				-0.2640624940395355,
				-0.7177762985229492
			],
			"type":"VEC3"
		},
		{
			"bufferView":9,
			"componentType":5126,
			"count":380,
			"type":"VEC3"
		},
		{
			"bufferView":10,
			"componentType":5126,
			"count":380,
			"type":"VEC2"
		},
		{
			"bufferView":11,
			"componentType":5123,
			"count":768,
			"type":"SCALAR"
		},
		{
			"bufferView":12,
			"componentType":5126,
			"count":56,
			"max":[
				1,
				0.25,
				0.1875
			],
			"min":[
				-1,
				-0.25,
				-0.1875
			],
			"type":"VEC3"
		},
		{
			"bufferView":13,
			"componentType":5126,
			"count":56,
			"type":"VEC3"
		},
		{
			"bufferView":14,
			"componentType":5126,
			"count":56,
			"type":"VEC2"
		},
		{
			"bufferView":15,
			"componentType":5123,
			"count":120,
			"type":"SCALAR"
		},
		{
			"bufferView":16,
			"componentType":5126,
			"count":9,
			"max":[
				-1,
				0.0625,
				0.0625
			],
			"min":[
				-1,
				-0.0625,
				-0.0625
			],
			"type":"VEC3"
		},
		{
			"bufferView":17,
			"componentType":5126,
			"count":9,
			"type":"VEC3"
		},
		{
			"bufferView":18,
			"componentType":5126,
			"count":9,
			"type":"VEC2"
		},
		{
			"bufferView":19,
			"componentType":5123,
			"count":24,
			"type":"SCALAR"
		}
	],
	"bufferViews":[
		{
			"buffer":0,
			"byteLength":384,
			"byteOffset":0,
			"target":34962
		},
		{
			"buffer":0,
			"byteLength":384,
			"byteOffset":384,
			"target":34962
		},
		{
			"buffer":0,
			"byteLength":256,
			"byteOffset":768,
			"target":34962
		},
		{
			"buffer":0,
			"byteLength":96,
			"byteOffset":1024,
			"target":34963
		},
		{
			"buffer":0,
			"byteLength":1068,
			"byteOffset":1120,
			"target":34962
		},
		{
			"buffer":0,
			"byteLength":1068,
			"byteOffset":2188,
			"target":34962
		},
		{
			"buffer":0,
			"byteLength":712,
			"byteOffset":3256,
			"target":34962
		},
		{
			"buffer":0,
			"byteLength":384,
			"byteOffset":3968,
			"target":34963
		},
		{
			"buffer":0,
			"byteLength":4560,
			"byteOffset":4352,
			"target":34962
		},
		{
			"buffer":0,
			"byteLength":4560,
			"byteOffset":8912,
			"target":34962
		},
		{
			"buffer":0,
			"byteLength":3040,
			"byteOffset":13472,
			"target":34962
		},
		{
			"buffer":0,
			"byteLength":1536,
			"byteOffset":16512,
			"target":34963
		},
		{
			"buffer":0,
			"byteLength":672,
			"byteOffset":18048,
			"target":34962
		},
		{
			"buffer":0,
			"byteLength":672,
			"byteOffset":18720,
			"target":34962
		},
		{
			"buffer":0,
			"byteLength":448,
			"byteOffset":19392,
			"target":34962
		},
		{
			"buffer":0,
			"byteLength":240,
			"byteOffset":19840,
			"target":34963
		},
		{
			"buffer":0,
			"byteLength":108,
			"byteOffset":20080,
			"target":34962
		},
		{
			"buffer":0,
			"byteLength":108,
			"byteOffset":20188,
			"target":34962
		},
		{
			"buffer":0,
			"byteLength":72,
			"byteOffset":20296,
			"target":34962
		},
		{
			"buffer":0,
			"byteLength":48,
			"byteOffset":20368,
			"target":34963
		}
	],
	"buffers":[
		{
			"byteLength":20416,
			"uri":"enemy_suicide_drone.bin"
		}
	]
}
