{
	"asset":{
		"generator":"Khronos glTF Blender I/O v4.1.62",
		"version":"2.0"
	},
	"scene":0,
	"scenes":[
		{
			"name":"Scene",
			"nodes":[
				0,
				1,
				2,
				3
			]
		}
	],
	"nodes":[
		{
			"mesh":0,
			"name":"spawner_ship_spawner_one",
			"translation":[
				-0.10000000149011612,
				-0.10000000149011612,
				0
			]
		},
		{
			"mesh":1,
			"name":"spawner_ship_spawner_three",
			"translation":[
				-0.10000000149011612,
				-0.10000000149011612,
				-4
			]
		},
		{
			"mesh":2,
			"name":"spawner_ship.spawner_two",
			"translation":[
				-0.10000000149011612,
				-0.10000000149011612,
				4
			]
		},
		{
			"mesh":3,
			"name":"spawner_ship",
			"scale":[
				4,
				1,
				6
			],
			"translation":[
				3,
				1,
				0
			]
		}
	],
	"materials":[
		{
			"doubleSided":true,
			"name":"material_black",
			"pbrMetallicRoughness":{
				"baseColorFactor":[
					0.008023137226700783,
					0.008568133227527142,
					0.010329825803637505,
					1
				],
				"metallicFactor":0,
				"roughnessFactor":0.5
			}
		},
		{
			"doubleSided":true,
			"name":"material_white",
			"pbrMetallicRoughness":{
				"baseColorFactor":[
					0.955967128276825,
					0.9822514057159424,
					1,
					1
				],
				"metallicFactor":0,
				"roughnessFactor":0.5
			}
		},
		{
			"doubleSided":true,
			"name":"material_violet",
			"pbrMetallicRoughness":{
				"baseColorFactor":[
					0.05612812936306,
					0,
					0.13563339412212372,
					1
				],
				"metallicFactor":0,
				"roughnessFactor":0.5
			}
		},
		{
			"doubleSided":true,
			"name":"material_dark_sky_blue",
			"pbrMetallicRoughness":{
				"baseColorFactor":[
					0.01680712029337883,
					0.06662598997354507,
					0.17788846790790558,
					1
				],
				"metallicFactor":0,
				"roughnessFactor":0.5
			}
		}
	],
	"meshes":[
		{
			"name":"Cube.014",
			"primitives":[
				{
					"attributes":{
						"POSITION":0,
						"NORMAL":1,
						"TEXCOORD_0":2
					},
					"indices":3,
					"material":0
				}
			]
		},
		{
			"name":"Cube.029",
			"primitives":[
				{
					"attributes":{
						"POSITION":4,
						"NORMAL":5,
						"TEXCOORD_0":6
					},
					"indices":3,
					"material":0
				}
			]
		},
		{
			"name":"Cube.030",
			"primitives":[
				{
					"attributes":{
						"POSITION":7,
						"NORMAL":8,
						"TEXCOORD_0":9
					},
					"indices":3,
					"material":0
				}
			]
		},
		{
			"name":"Cube.031",
			"primitives":[
				{
					"attributes":{
						"POSITION":10,
						"NORMAL":11,
						"TEXCOORD_0":12
					},
					"indices":13,
					"material":0
				},
				{
					"attributes":{
						"POSITION":14,
						"NORMAL":15,
						"TEXCOORD_0":16
					},
					"indices":17,
					"material":1
				},
				{
					"attributes":{
						"POSITION":18,
						"NORMAL":19,
						"TEXCOORD_0":20
					},
					"indices":21,
					"material":2
				},
				{
					"attributes":{
						"POSITION":22,
						"NORMAL":23,
						"TEXCOORD_0":24
					},
					"indices":25,
					"material":3
				}
			]
		}
	],
	"accessors":[
		{
			"bufferView":0,
			"componentType":5126,
			"count":24,
			"max":[
				3,
				1,
				1
			],
			"min":[
				-1,
				-1,
				-1
			],
			"type":"VEC3"
		},
		{
			"bufferView":1,
			"componentType":5126,
			"count":24,
			"type":"VEC3"
		},
		{
			"bufferView":2,
			"componentType":5126,
			"count":24,
			"type":"VEC2"
		},
		{
			"bufferView":3,
			"componentType":5123,
			"count":36,
			"type":"SCALAR"
		},
		{
			"bufferView":4,
			"componentType":5126,
			"count":24,
			"max":[
				3,
				1,
				1
			],
			"min":[
				-1,
				-1,
				-1
			],
			"type":"VEC3"
		},
		{
			"bufferView":5,
			"componentType":5126,
			"count":24,
			"type":"VEC3"
		},
		{
			"bufferView":6,
			"componentType":5126,
			"count":24,
			"type":"VEC2"
		},
		{
			"bufferView":7,
			"componentType":5126,
			"count":24,
			"max":[
				3,
				1,
				1
			],
			"min":[
				-1,
				-1,
				-1
			],
			"type":"VEC3"
		},
		{
			"bufferView":8,
			"componentType":5126,
			"count":24,
			"type":"VEC3"
		},
		{
			"bufferView":9,
			"componentType":5126,
			"count":24,
			"type":"VEC2"
		},
		{
			"bufferView":10,
			"componentType":5126,
			"count":96,
			"max":[
				3.7272727489471436,
				1,
				1.25
			],
			"min":[
				-1.0227272510528564,
				-1.5,
				-1.25
			],
			"type":"VEC3"
		},
		{
			"bufferView":11,
			"componentType":5126,
			"count":96,
			"type":"VEC3"
		},
		{
			"bufferView":12,
			"componentType":5126,
			"count":96,
			"type":"VEC2"
		},
		{
			"bufferView":13,
			"componentType":5123,
			"count":168,
			"type":"SCALAR"
		},
		{
			"bufferView":14,
			"componentType":5126,
			"count":9,
			"max":[
				0.7272726893424988,
				0.75,
				0.5
			],
			"min":[
				0.22727273404598236,
				0.25,
				-0.5
			],
			"type":"VEC3"
		},
		{
			"bufferView":15,
			"componentType":5126,
			"count":9,
			"type":"VEC3"
		},
		{
			"bufferView":16,
			"componentType":5126,
			"count":9,
			"type":"VEC2"
		},
		{
			"bufferView":17,
			"componentType":5123,
			"count":24,
			"type":"SCALAR"
		},
		{
			"bufferView":18,
			"componentType":5126,
			"count":10,
			"max":[
				-0.022727251052856445,
				0,
				1
			],
			"min":[
				-1.0227272510528564,
				-1,
				-1
			],
			"type":"VEC3"
		},
		{
			"bufferView":19,
			"componentType":5126,
			"count":10,
			"type":"VEC3"
		},
		{
			"bufferView":20,
			"componentType":5126,
			"count":10,
			"type":"VEC2"
		},
		{
			"bufferView":21,
			"componentType":5123,
			"count":24,
			"type":"SCALAR"
		},
		{
			"bufferView":22,
			"componentType":5126,
			"count":313,
			"max":[
				3.9772727489471436,
				1,
				1.3333333730697632
			],
			"min":[
				-1.0227272510528564,
				-2,
				-1.3333333730697632
			],
			"type":"VEC3"
		},
		{
			"bufferView":23,
			"componentType":5126,
			"count":313,
			"type":"VEC3"
		},
		{
			"bufferView":24,
			"componentType":5126,
			"count":313,
			"type":"VEC2"
		},
		{
			"bufferView":25,
			"componentType":5123,
			"count":648,
			"type":"SCALAR"
		}
	],
	"bufferViews":[
		{
			"buffer":0,
			"byteLength":288,
			"byteOffset":0,
			"target":34962
		},
		{
			"buffer":0,
			"byteLength":288,
			"byteOffset":288,
			"target":34962
		},
		{
			"buffer":0,
			"byteLength":192,
			"byteOffset":576,
			"target":34962
		},
		{
			"buffer":0,
			"byteLength":72,
			"byteOffset":768,
			"target":34963
		},
		{
			"buffer":0,
			"byteLength":288,
			"byteOffset":840,
			"target":34962
		},
		{
			"buffer":0,
			"byteLength":288,
			"byteOffset":1128,
			"target":34962
		},
		{
			"buffer":0,
			"byteLength":192,
			"byteOffset":1416,
			"target":34962
		},
		{
			"buffer":0,
			"byteLength":288,
			"byteOffset":1608,
			"target":34962
		},
		{
			"buffer":0,
			"byteLength":288,
			"byteOffset":1896,
			"target":34962
		},
		{
			"buffer":0,
			"byteLength":192,
			"byteOffset":2184,
			"target":34962
		},
		{
			"buffer":0,
			"byteLength":1152,
			"byteOffset":2376,
			"target":34962
		},
		{
			"buffer":0,
			"byteLength":1152,
			"byteOffset":3528,
			"target":34962
		},
		{
			"buffer":0,
			"byteLength":768,
			"byteOffset":4680,
			"target":34962
		},
		{
			"buffer":0,
			"byteLength":336,
			"byteOffset":5448,
			"target":34963
		},
		{
			"buffer":0,
			"byteLength":108,
			"byteOffset":5784,
			"target":34962
		},
		{
			"buffer":0,
			"byteLength":108,
			"byteOffset":5892,
			"target":34962
		},
		{
			"buffer":0,
			"byteLength":72,
			"byteOffset":6000,
			"target":34962
		},
		{
			"buffer":0,
			"byteLength":48,
			"byteOffset":6072,
			"target":34963
		},
		{
			"buffer":0,
			"byteLength":120,
			"byteOffset":6120,
			"target":34962
		},
		{
			"buffer":0,
			"byteLength":120,
			"byteOffset":6240,
			"target":34962
		},
		{
			"buffer":0,
			"byteLength":80,
			"byteOffset":6360,
			"target":34962
		},
		{
			"buffer":0,
			"byteLength":48,
			"byteOffset":6440,
			"target":34963
		},
		{
			"buffer":0,
			"byteLength":3756,
			"byteOffset":6488,
			"target":34962
		},
		{
			"buffer":0,
			"byteLength":3756,
			"byteOffset":10244,
			"target":34962
		},
		{
			"buffer":0,
			"byteLength":2504,
			"byteOffset":14000,
			"target":34962
		},
		{
			"buffer":0,
			"byteLength":1296,
			"byteOffset":16504,
			"target":34963
		}
	],
	"buffers":[
		{
			"byteLength":17800,
			"uri":"enemy_spawner_ship.bin"
		}
	]
}
