{
	"asset":{
		"generator":"Khronos glTF Blender I/O v4.1.62",
		"version":"2.0"
	},
	"scene":0,
	"scenes":[
		{
			"name":"Scene",
			"nodes":[
				0
			]
		}
	],
	"nodes":[
		{
			"mesh":0,
			"name":"enemy_swallower_e",
			"scale":[
				1.749599814414978,
				1.7999999523162842,
				1.749599814414978
			],
			"translation":[
				0,
				16,
				0
			]
		}
	],
	"materials":[
		{
			"doubleSided":true,
			"name":"material_black",
			"pbrMetallicRoughness":{
				"baseColorFactor":[
					0.008023137226700783,
					0.008568133227527142,
					0.010329825803637505,
					1
				],
				"metallicFactor":0,
				"roughnessFactor":0.5
			}
		},
		{
			"doubleSided":true,
			"name":"material_dark_red",
			"pbrMetallicRoughness":{
				"baseColorFactor":[
					0.2122296541929245,
					0.0018211320275440812,
					0.015996303409337997,
					1
				],
				"metallicFactor":0,
				"roughnessFactor":0.5
			}
		},
		{
			"doubleSided":true,
			"name":"material_bright_red",
			"pbrMetallicRoughness":{
				"baseColorFactor":[
					0.6724398732185364,
					0.01764189638197422,
					0.0056054117158055305,
					1
				],
				"metallicFactor":0,
				"roughnessFactor":0.5
			}
		},
		{
			"doubleSided":true,
			"name":"material_white",
			"pbrMetallicRoughness":{
				"baseColorFactor":[
					0.955967128276825,
					0.9822514057159424,
					1,
					1
				],
				"metallicFactor":0,
				"roughnessFactor":0.5
			}
		}
	],
	"meshes":[
		{
			"name":"Cube.036",
			"primitives":[
				{
					"attributes":{
						"POSITION":0,
						"NORMAL":1,
						"TEXCOORD_0":2
					},
					"indices":3,
					"material":0
				},
				{
					"attributes":{
						"POSITION":4,
						"NORMAL":5,
						"TEXCOORD_0":6
					},
					"indices":7,
					"material":1
				},
				{
					"attributes":{
						"POSITION":8,
						"NORMAL":9,
						"TEXCOORD_0":10
					},
					"indices":11,
					"material":2
				},
				{
					"attributes":{
						"POSITION":12,
						"NORMAL":13,
						"TEXCOORD_0":14
					},
					"indices":15,
					"material":3
				}
			]
		}
	],
	"accessors":[
		{
			"bufferView":0,
			"componentType":5126,
			"count":9,
			"max":[
				0.5600000023841858,
				1.388888955116272,
				0.5600000023841858
			],
			"min":[
				-0.5600000023841858,
				1.388888955116272,
				-0.5600000023841858
			],
			"type":"VEC3"
		},
		{
			"bufferView":1,
			"componentType":5126,
			"count":9,
			"type":"VEC3"
		},
		{
			"bufferView":2,
			"componentType":5126,
			"count":9,
			"type":"VEC2"
		},
		{
			"bufferView":3,
			"componentType":5123,
			"count":24,
			"type":"SCALAR"
		},
		{
			"bufferView":4,
			"componentType":5126,
			"count":132,
			"max":[
				1.5,
				2.222222328186035,
				1.5
			],
			"min":[
				-1.5,
				1.1111109256744385,
				-1.5
			],
			"type":"VEC3"
		},
		{
			"bufferView":5,
			"componentType":5126,
			"count":132,
			"type":"VEC3"
		},
		{
			"bufferView":6,
			"componentType":5126,
			"count":132,
			"type":"VEC2"
		},
		{
			"bufferView":7,
			"componentType":5123,
			"count":288,
			"type":"SCALAR"
		},
		{
			"bufferView":8,
			"componentType":5126,
			"count":105,
			"max":[
				1.5,
				1.1111109256744385,
				1.5
			],
			"min":[
				-1.5,
				0,
				-1.5
			],
			"type":"VEC3"
		},
		{
			"bufferView":9,
			"componentType":5126,
			"count":105,
			"type":"VEC3"
		},
		{
			"bufferView":10,
			"componentType":5126,
			"count":105,
			"type":"VEC2"
		},
		{
			"bufferView":11,
			"componentType":5123,
			"count":360,
			"type":"SCALAR"
		},
		{
			"bufferView":12,
			"componentType":5126,
			"count":36,
			"max":[
				1.399999976158142,
				2.222222328186035,
				1.399999976158142
			],
			"min":[
				-1.399999976158142,
				1.388888955116272,
				-1.399999976158142
			],
			"type":"VEC3"
		},
		{
			"bufferView":13,
			"componentType":5126,
			"count":36,
			"type":"VEC3"
		},
		{
			"bufferView":14,
			"componentType":5126,
			"count":36,
			"type":"VEC2"
		},
		{
			"bufferView":15,
			"componentType":5123,
			"count":48,
			"type":"SCALAR"
		}
	],
	"bufferViews":[
		{
			"buffer":0,
			"byteLength":108,
			"byteOffset":0,
			"target":34962
		},
		{
			"buffer":0,
			"byteLength":108,
			"byteOffset":108,
			"target":34962
		},
		{
			"buffer":0,
			"byteLength":72,
			"byteOffset":216,
			"target":34962
		},
		{
			"buffer":0,
			"byteLength":48,
			"byteOffset":288,
			"target":34963
		},
		{
			"buffer":0,
			"byteLength":1584,
			"byteOffset":336,
			"target":34962
		},
		{
			"buffer":0,
			"byteLength":1584,
			"byteOffset":1920,
			"target":34962
		},
		{
			"buffer":0,
			"byteLength":1056,
			"byteOffset":3504,
			"target":34962
		},
		{
			"buffer":0,
			"byteLength":576,
			"byteOffset":4560,
			"target":34963
		},
		{
			"buffer":0,
			"byteLength":1260,
			"byteOffset":5136,
			"target":34962
		},
		{
			"buffer":0,
			"byteLength":1260,
			"byteOffset":6396,
			"target":34962
		},
		{
			"buffer":0,
			"byteLength":840,
			"byteOffset":7656,
			"target":34962
		},
		{
			"buffer":0,
			"byteLength":720,
			"byteOffset":8496,
			"target":34963
		},
		{
			"buffer":0,
			"byteLength":432,
			"byteOffset":9216,
			"target":34962
		},
		{
			"buffer":0,
			"byteLength":432,
			"byteOffset":9648,
			"target":34962
		},
		{
			"buffer":0,
			"byteLength":288,
			"byteOffset":10080,
			"target":34962
		},
		{
			"buffer":0,
			"byteLength":96,
			"byteOffset":10368,
			"target":34963
		}
	],
	"buffers":[
		{
			"byteLength":10464,
			"uri":"enemy_swallower_e.bin"
		}
	]
}
