{
	"asset":{
		"generator":"Khronos glTF Blender I/O v4.1.62",
		"version":"2.0"
	},
	"scene":0,
	"scenes":[
		{
			"name":"Scene",
			"nodes":[
				0
			]
		}
	],
	"nodes":[
		{
			"mesh":0,
			"name":"enemy_thinker_left_hand",
			"rotation":[
				0,
				0,
				1,
				7.549790126404332e-08
			],
			"translation":[
				-1.25,
				3.7286956310272217,
				0
			]
		}
	],
	"materials":[
		{
			"doubleSided":true,
			"name":"material_black",
			"pbrMetallicRoughness":{
				"baseColorFactor":[
					0.008023137226700783,
					0.008568133227527142,
					0.010329825803637505,
					1
				],
				"metallicFactor":0,
				"roughnessFactor":0.5
			}
		}
	],
	"meshes":[
		{
			"name":"Cube.040",
			"primitives":[
				{
					"attributes":{
						"POSITION":0,
						"NORMAL":1,
						"TEXCOORD_0":2
					},
					"indices":3,
					"material":0
				}
			]
		}
	],
	"accessors":[
		{
			"bufferView":0,
			"componentType":5126,
			"count":46,
			"max":[
				1.0548717975616455,
				2,
				0.5
			],
			"min":[
				-1.959097062353976e-08,
				-1.7205782398832525e-07,
				-0.5
			],
			"type":"VEC3"
		},
		{
			"bufferView":1,
			"componentType":5126,
			"count":46,
			"type":"VEC3"
		},
		{
			"bufferView":2,
			"componentType":5126,
			"count":46,
			"type":"VEC2"
		},
		{
			"bufferView":3,
			"componentType":5123,
			"count":84,
			"type":"SCALAR"
		}
	],
	"bufferViews":[
		{
			"buffer":0,
			"byteLength":552,
			"byteOffset":0,
			"target":34962
		},
		{
			"buffer":0,
			"byteLength":552,
			"byteOffset":552,
			"target":34962
		},
		{
			"buffer":0,
			"byteLength":368,
			"byteOffset":1104,
			"target":34962
		},
		{
			"buffer":0,
			"byteLength":168,
			"byteOffset":1472,
			"target":34963
		}
	],
	"buffers":[
		{
			"byteLength":1640,
			"uri":"enemy_thinker_left_hand.bin"
		}
	]
}
