{
	"asset":{
		"generator":"Khronos glTF Blender I/O v4.1.62",
		"version":"2.0"
	},
	"scene":0,
	"scenes":[
		{
			"name":"Scene",
			"nodes":[
				0
			]
		}
	],
	"nodes":[
		{
			"mesh":0,
			"name":"rotating_enemy_ship"
		}
	],
	"materials":[
		{
			"doubleSided":true,
			"name":"material_white",
			"pbrMetallicRoughness":{
				"baseColorFactor":[
					0.955967128276825,
					0.9822514057159424,
					1,
					1
				],
				"metallicFactor":0,
				"roughnessFactor":0.5
			}
		},
		{
			"doubleSided":true,
			"name":"material_violet",
			"pbrMetallicRoughness":{
				"baseColorFactor":[
					0.05612812936306,
					0,
					0.13563339412212372,
					1
				],
				"metallicFactor":0,
				"roughnessFactor":0.5
			}
		},
		{
			"doubleSided":true,
			"name":"material_dark_sky_blue",
			"pbrMetallicRoughness":{
				"baseColorFactor":[
					0.01680712029337883,
					0.06662598997354507,
					0.17788846790790558,
					1
				],
				"metallicFactor":0,
				"roughnessFactor":0.5
			}
		}
	],
	"meshes":[
		{
			"name":"Cube.009",
			"primitives":[
				{
					"attributes":{
						"POSITION":0,
						"NORMAL":1,
						"TEXCOORD_0":2
					},
					"indices":3,
					"material":0
				},
				{
					"attributes":{
						"POSITION":4,
						"NORMAL":5,
						"TEXCOORD_0":6
					},
					"indices":7,
					"material":1
				},
				{
					"attributes":{
						"POSITION":8,
						"NORMAL":9,
						"TEXCOORD_0":10
					},
					"indices":11,
					"material":2
				}
			]
		}
	],
	"accessors":[
		{
			"bufferView":0,
			"componentType":5126,
			"count":158,
			"max":[
				1.5,
				0.07500000298023224,
				1.5
			],
			"min":[
				-1.5,
				-0.07500000298023224,
				-1.5
			],
			"type":"VEC3"
		},
		{
			"bufferView":1,
			"componentType":5126,
			"count":158,
			"type":"VEC3"
		},
		{
			"bufferView":2,
			"componentType":5126,
			"count":158,
			"type":"VEC2"
		},
		{
			"bufferView":3,
			"componentType":5123,
			"count":336,
			"type":"SCALAR"
		},
		{
			"bufferView":4,
			"componentType":5126,
			"count":194,
			"max":[
				1,
				0.5,
				1
			],
			"min":[
				-1,
				-0.5,
				-1
			],
			"type":"VEC3"
		},
		{
			"bufferView":5,
			"componentType":5126,
			"count":194,
			"type":"VEC3"
		},
		{
			"bufferView":6,
			"componentType":5126,
			"count":194,
			"type":"VEC2"
		},
		{
			"bufferView":7,
			"componentType":5123,
			"count":384,
			"type":"SCALAR"
		},
		{
			"bufferView":8,
			"componentType":5126,
			"count":32,
			"max":[
				1,
				0.07500000298023224,
				1
			],
			"min":[
				-1,
				-0.07500000298023224,
				-1
			],
			"type":"VEC3"
		},
		{
			"bufferView":9,
			"componentType":5126,
			"count":32,
			"type":"VEC3"
		},
		{
			"bufferView":10,
			"componentType":5126,
			"count":32,
			"type":"VEC2"
		},
		{
			"bufferView":11,
			"componentType":5123,
			"count":48,
			"type":"SCALAR"
		}
	],
	"bufferViews":[
		{
			"buffer":0,
			"byteLength":1896,
			"byteOffset":0,
			"target":34962
		},
		{
			"buffer":0,
			"byteLength":1896,
			"byteOffset":1896,
			"target":34962
		},
		{
			"buffer":0,
			"byteLength":1264,
			"byteOffset":3792,
			"target":34962
		},
		{
			"buffer":0,
			"byteLength":672,
			"byteOffset":5056,
			"target":34963
		},
		{
			"buffer":0,
			"byteLength":2328,
			"byteOffset":5728,
			"target":34962
		},
		{
			"buffer":0,
			"byteLength":2328,
			"byteOffset":8056,
			"target":34962
		},
		{
			"buffer":0,
			"byteLength":1552,
			"byteOffset":10384,
			"target":34962
		},
		{
			"buffer":0,
			"byteLength":768,
			"byteOffset":11936,
			"target":34963
		},
		{
			"buffer":0,
			"byteLength":384,
			"byteOffset":12704,
			"target":34962
		},
		{
			"buffer":0,
			"byteLength":384,
			"byteOffset":13088,
			"target":34962
		},
		{
			"buffer":0,
			"byteLength":256,
			"byteOffset":13472,
			"target":34962
		},
		{
			"buffer":0,
			"byteLength":96,
			"byteOffset":13728,
			"target":34963
		}
	],
	"buffers":[
		{
			"byteLength":13824,
			"uri":"enemy_rotating_ship.bin"
		}
	]
}
