{
	"asset":{
		"generator":"Khronos glTF Blender I/O v4.1.62",
		"version":"2.0"
	},
	"scene":0,
	"scenes":[
		{
			"name":"Scene",
			"nodes":[
				0,
				1
			]
		}
	],
	"nodes":[
		{
			"mesh":0,
			"name":"rocket_pickup",
			"scale":[
				1,
				1,
				0.19999998807907104
			]
		},
		{
			"mesh":1,
			"name":"shield_pickup",
			"scale":[
				0.5385633707046509,
				0.5385633707046509,
				0.06395245343446732
			],
			"translation":[
				0,
				0,
				0.3875467777252197
			]
		}
	],
	"materials":[
		{
			"doubleSided":true,
			"name":"material_light_sky_blue",
			"pbrMetallicRoughness":{
				"baseColorFactor":[
					0.1384301483631134,
					0.4232679009437561,
					0.658375084400177,
					1
				],
				"metallicFactor":0,
				"roughnessFactor":0.5
			}
		},
		{
			"doubleSided":true,
			"name":"material_violet",
			"pbrMetallicRoughness":{
				"baseColorFactor":[
					0.05612812936306,
					0,
					0.13563339412212372,
					1
				],
				"metallicFactor":0,
				"roughnessFactor":0.5
			}
		}
	],
	"meshes":[
		{
			"name":"Cube.019",
			"primitives":[
				{
					"attributes":{
						"POSITION":0,
						"NORMAL":1,
						"TEXCOORD_0":2
					},
					"indices":3,
					"material":0
				}
			]
		},
		{
			"name":"Cube.025",
			"primitives":[
				{
					"attributes":{
						"POSITION":4,
						"NORMAL":5,
						"TEXCOORD_0":6
					},
					"indices":7,
					"material":1
				}
			]
		}
	],
	"accessors":[
		{
			"bufferView":0,
			"componentType":5126,
			"count":50,
			"max":[
				1,
				1,
				1
			],
			"min":[
				-1,
				-1,
				-1
			],
			"type":"VEC3"
		},
		{
			"bufferView":1,
			"componentType":5126,
			"count":50,
			"type":"VEC3"
		},
		{
			"bufferView":2,
			"componentType":5126,
			"count":50,
			"type":"VEC2"
		},
		{
			"bufferView":3,
			"componentType":5123,
			"count":96,
			"type":"SCALAR"
		},
		{
			"bufferView":4,
			"componentType":5126,
			"count":104,
			"max":[
				1,
				1,
				3.103214740753174
			],
			"min":[
				-1,
				-1,
				-3.3202502727508545
			],
			"type":"VEC3"
		},
		{
			"bufferView":5,
			"componentType":5126,
			"count":104,
			"type":"VEC3"
		},
		{
			"bufferView":6,
			"componentType":5126,
			"count":104,
			"type":"VEC2"
		},
		{
			"bufferView":7,
			"componentType":5123,
			"count":180,
			"type":"SCALAR"
		}
	],
	"bufferViews":[
		{
			"buffer":0,
			"byteLength":600,
			"byteOffset":0,
			"target":34962
		},
		{
			"buffer":0,
			"byteLength":600,
			"byteOffset":600,
			"target":34962
		},
		{
			"buffer":0,
			"byteLength":400,
			"byteOffset":1200,
			"target":34962
		},
		{
			"buffer":0,
			"byteLength":192,
			"byteOffset":1600,
			"target":34963
		},
		{
			"buffer":0,
			"byteLength":1248,
			"byteOffset":1792,
			"target":34962
		},
		{
			"buffer":0,
			"byteLength":1248,
			"byteOffset":3040,
			"target":34962
		},
		{
			"buffer":0,
			"byteLength":832,
			"byteOffset":4288,
			"target":34962
		},
		{
			"buffer":0,
			"byteLength":360,
			"byteOffset":5120,
			"target":34963
		}
	],
	"buffers":[
		{
			"byteLength":5480,
			"uri":"pickup_shield.bin"
		}
	]
}
