{
	"asset":{
		"generator":"Khronos glTF Blender I/O v4.1.62",
		"version":"2.0"
	},
	"scene":0,
	"scenes":[
		{
			"name":"Scene",
			"nodes":[
				0
			]
		}
	],
	"nodes":[
		{
			"mesh":0,
			"name":"health_pickup"
		}
	],
	"materials":[
		{
			"doubleSided":true,
			"name":"material_bright_red",
			"pbrMetallicRoughness":{
				"baseColorFactor":[
					0.6724398732185364,
					0.01764189638197422,
					0.0056054117158055305,
					1
				],
				"metallicFactor":0,
				"roughnessFactor":0.5
			}
		},
		{
			"doubleSided":true,
			"name":"material_white",
			"pbrMetallicRoughness":{
				"baseColorFactor":[
					0.955967128276825,
					0.9822514057159424,
					1,
					1
				],
				"metallicFactor":0,
				"roughnessFactor":0.5
			}
		}
	],
	"meshes":[
		{
			"name":"Cube.018",
			"primitives":[
				{
					"attributes":{
						"POSITION":0,
						"NORMAL":1,
						"TEXCOORD_0":2
					},
					"indices":3,
					"material":0
				},
				{
					"attributes":{
						"POSITION":4,
						"NORMAL":5,
						"TEXCOORD_0":6
					},
					"indices":7,
					"material":1
				}
			]
		}
	],
	"accessors":[
		{
			"bufferView":0,
			"componentType":5126,
			"count":66,
			"max":[
				1,
				1,
				0.19999998807907104
			],
			"min":[
				-1,
				-1,
				-0.19999998807907104
			],
			"type":"VEC3"
		},
		{
			"bufferView":1,
			"componentType":5126,
			"count":66,
			"type":"VEC3"
		},
		{
			"bufferView":2,
			"componentType":5126,
			"count":66,
			"type":"VEC2"
		},
		{
			"bufferView":3,
			"componentType":5123,
			"count":192,
			"type":"SCALAR"
		},
		{
			"bufferView":4,
			"componentType":5126,
			"count":64,
			"max":[
				1,
				1,
				0.19999998807907104
			],
			"min":[
				-1,
				-1,
				-0.19999998807907104
			],
			"type":"VEC3"
		},
		{
			"bufferView":5,
			"componentType":5126,
			"count":64,
			"type":"VEC3"
		},
		{
			"bufferView":6,
			"componentType":5126,
			"count":64,
			"type":"VEC2"
		},
		{
			"bufferView":7,
			"componentType":5123,
			"count":96,
			"type":"SCALAR"
		}
	],
	"bufferViews":[
		{
			"buffer":0,
			"byteLength":792,
			"byteOffset":0,
			"target":34962
		},
		{
			"buffer":0,
			"byteLength":792,
			"byteOffset":792,
			"target":34962
		},
		{
			"buffer":0,
			"byteLength":528,
			"byteOffset":1584,
			"target":34962
		},
		{
			"buffer":0,
			"byteLength":384,
			"byteOffset":2112,
			"target":34963
		},
		{
			"buffer":0,
			"byteLength":768,
			"byteOffset":2496,
			"target":34962
		},
		{
			"buffer":0,
			"byteLength":768,
			"byteOffset":3264,
			"target":34962
		},
		{
			"buffer":0,
			"byteLength":512,
			"byteOffset":4032,
			"target":34962
		},
		{
			"buffer":0,
			"byteLength":192,
			"byteOffset":4544,
			"target":34963
		}
	],
	"buffers":[
		{
			"byteLength":4736,
			"uri":"pickup_health.bin"
		}
	]
}
