{
	"asset":{
		"generator":"Khronos glTF Blender I/O v4.1.62",
		"version":"2.0"
	},
	"scene":0,
	"scenes":[
		{
			"name":"Scene",
			"nodes":[
				0,
				1
			]
		}
	],
	"nodes":[
		{
			"mesh":0,
			"name":"rocket_pickup",
			"scale":[
				1,
				1,
				0.19999998807907104
			]
		},
		{
			"mesh":1,
			"name":"rocket_pickup_rocket",
			"rotation":[
				0,
				0,
				0.3732663691043854,
				0.9277242422103882
			],
			"scale":[
				1,
				0.19999997317790985,
				0.19999998807907104
			],
			"translation":[
				0.14515113830566406,
				0,
				-0.20891433954238892
			]
		}
	],
	"materials":[
		{
			"doubleSided":true,
			"name":"material_light_sky_blue",
			"pbrMetallicRoughness":{
				"baseColorFactor":[
					0.1384301483631134,
					0.4232679009437561,
					0.658375084400177,
					1
				],
				"metallicFactor":0,
				"roughnessFactor":0.5
			}
		},
		{
			"doubleSided":true,
			"name":"material_black",
			"pbrMetallicRoughness":{
				"baseColorFactor":[
					0.008023137226700783,
					0.008568133227527142,
					0.010329825803637505,
					1
				],
				"metallicFactor":0,
				"roughnessFactor":0.5
			}
		},
		{
			"doubleSided":true,
			"name":"material_white",
			"pbrMetallicRoughness":{
				"baseColorFactor":[
					0.955967128276825,
					0.9822514057159424,
					1,
					1
				],
				"metallicFactor":0,
				"roughnessFactor":0.5
			}
		}
	],
	"meshes":[
		{
			"name":"Cube.019",
			"primitives":[
				{
					"attributes":{
						"POSITION":0,
						"NORMAL":1,
						"TEXCOORD_0":2
					},
					"indices":3,
					"material":0
				}
			]
		},
		{
			"name":"Cube.037",
			"primitives":[
				{
					"attributes":{
						"POSITION":4,
						"NORMAL":5,
						"TEXCOORD_0":6
					},
					"indices":7,
					"material":1
				},
				{
					"attributes":{
						"POSITION":8,
						"NORMAL":9,
						"TEXCOORD_0":10
					},
					"indices":11,
					"material":2
				}
			]
		}
	],
	"accessors":[
		{
			"bufferView":0,
			"componentType":5126,
			"count":50,
			"max":[
				1,
				1,
				1
			],
			"min":[
				-1,
				-1,
				-1
			],
			"type":"VEC3"
		},
		{
			"bufferView":1,
			"componentType":5126,
			"count":50,
			"type":"VEC3"
		},
		{
			"bufferView":2,
			"componentType":5126,
			"count":50,
			"type":"VEC2"
		},
		{
			"bufferView":3,
			"componentType":5123,
			"count":96,
			"type":"SCALAR"
		},
		{
			"bufferView":4,
			"componentType":5126,
			"count":20,
			"max":[
				1,
				1,
				1
			],
			"min":[
				0.44999998807907104,
				-1,
				-1
			],
			"type":"VEC3"
		},
		{
			"bufferView":5,
			"componentType":5126,
			"count":20,
			"type":"VEC3"
		},
		{
			"bufferView":6,
			"componentType":5126,
			"count":20,
			"type":"VEC2"
		},
		{
			"bufferView":7,
			"componentType":5123,
			"count":30,
			"type":"SCALAR"
		},
		{
			"bufferView":8,
			"componentType":5126,
			"count":20,
			"max":[
				0.44999998807907104,
				1,
				1
			],
			"min":[
				-1,
				-1,
				-1
			],
			"type":"VEC3"
		},
		{
			"bufferView":9,
			"componentType":5126,
			"count":20,
			"type":"VEC3"
		},
		{
			"bufferView":10,
			"componentType":5126,
			"count":20,
			"type":"VEC2"
		},
		{
			"bufferView":11,
			"componentType":5123,
			"count":30,
			"type":"SCALAR"
		}
	],
	"bufferViews":[
		{
			"buffer":0,
			"byteLength":600,
			"byteOffset":0,
			"target":34962
		},
		{
			"buffer":0,
			"byteLength":600,
			"byteOffset":600,
			"target":34962
		},
		{
			"buffer":0,
			"byteLength":400,
			"byteOffset":1200,
			"target":34962
		},
		{
			"buffer":0,
			"byteLength":192,
			"byteOffset":1600,
			"target":34963
		},
		{
			"buffer":0,
			"byteLength":240,
			"byteOffset":1792,
			"target":34962
		},
		{
			"buffer":0,
			"byteLength":240,
			"byteOffset":2032,
			"target":34962
		},
		{
			"buffer":0,
			"byteLength":160,
			"byteOffset":2272,
			"target":34962
		},
		{
			"buffer":0,
			"byteLength":60,
			"byteOffset":2432,
			"target":34963
		},
		{
			"buffer":0,
			"byteLength":240,
			"byteOffset":2492,
			"target":34962
		},
		{
			"buffer":0,
			"byteLength":240,
			"byteOffset":2732,
			"target":34962
		},
		{
			"buffer":0,
			"byteLength":160,
			"byteOffset":2972,
			"target":34962
		},
		{
			"buffer":0,
			"byteLength":60,
			"byteOffset":3132,
			"target":34963
		}
	],
	"buffers":[
		{
			"byteLength":3192,
			"uri":"pickup_rocket.bin"
		}
	]
}
