{
	"asset":{
		"generator":"Khronos glTF Blender I/O v4.1.62",
		"version":"2.0"
	},
	"scene":0,
	"scenes":[
		{
			"name":"Scene",
			"nodes":[
				0
			]
		}
	],
	"nodes":[
		{
			"mesh":0,
			"name":"player_spaceship"
		}
	],
	"materials":[
		{
			"doubleSided":true,
			"name":"material_black",
			"pbrMetallicRoughness":{
				"baseColorFactor":[
					0.008023137226700783,
					0.008568133227527142,
					0.010329825803637505,
					1
				],
				"metallicFactor":0,
				"roughnessFactor":0.5
			}
		},
		{
			"doubleSided":true,
			"name":"material_dark_red",
			"pbrMetallicRoughness":{
				"baseColorFactor":[
					0.2122296541929245,
					0.0018211320275440812,
					0.015996303409337997,
					1
				],
				"metallicFactor":0,
				"roughnessFactor":0.5
			}
		},
		{
			"doubleSided":true,
			"name":"material_orange",
			"pbrMetallicRoughness":{
				"baseColorFactor":[
					1,
					0.2307402789592743,
					0.019382433965802193,
					1
				],
				"metallicFactor":0,
				"roughnessFactor":0.5
			}
		},
		{
			"doubleSided":true,
			"name":"material_white",
			"pbrMetallicRoughness":{
				"baseColorFactor":[
					0.955967128276825,
					0.9822514057159424,
					1,
					1
				],
				"metallicFactor":0,
				"roughnessFactor":0.5
			}
		},
		{
			"doubleSided":true,
			"name":"material_dark_sky_blue",
			"pbrMetallicRoughness":{
				"baseColorFactor":[
					0.01680712029337883,
					0.06662598997354507,
					0.17788846790790558,
					1
				],
				"metallicFactor":0,
				"roughnessFactor":0.5
			}
		},
		{
			"doubleSided":true,
			"name":"material_light_sky_blue",
			"pbrMetallicRoughness":{
				"baseColorFactor":[
					0.1384301483631134,
					0.4232679009437561,
					0.658375084400177,
					1
				],
				"metallicFactor":0,
				"roughnessFactor":0.5
			}
		}
	],
	"meshes":[
		{
			"name":"Cube.015",
			"primitives":[
				{
					"attributes":{
						"POSITION":0,
						"NORMAL":1,
						"TEXCOORD_0":2
					},
					"indices":3,
					"material":0
				},
				{
					"attributes":{
						"POSITION":4,
						"NORMAL":5,
						"TEXCOORD_0":6
					},
					"indices":7,
					"material":1
				},
				{
					"attributes":{
						"POSITION":8,
						"NORMAL":9,
						"TEXCOORD_0":10
					},
					"indices":11,
					"material":2
				},
				{
					"attributes":{
						"POSITION":12,
						"NORMAL":13,
						"TEXCOORD_0":14
					},
					"indices":15,
					"material":3
				},
				{
					"attributes":{
						"POSITION":16,
						"NORMAL":17,
						"TEXCOORD_0":18
					},
					"indices":19,
					"material":4
				},
				{
					"attributes":{
						"POSITION":20,
						"NORMAL":21,
						"TEXCOORD_0":22
					},
					"indices":23,
					"material":5
				}
			]
		}
	],
	"accessors":[
		{
			"bufferView":0,
			"componentType":5126,
			"count":290,
			"max":[
				1.0048545598983765,
				0.3704290986061096,
				0.4251173734664917
			],
			"min":[
				-1,
				-0.04932284355163574,
				-0.4251173734664917
			],
			"type":"VEC3"
		},
		{
			"bufferView":1,
			"componentType":5126,
			"count":290,
			"type":"VEC3"
		},
		{
			"bufferView":2,
			"componentType":5126,
			"count":290,
			"type":"VEC2"
		},
		{
			"bufferView":3,
			"componentType":5123,
			"count":732,
			"type":"SCALAR"
		},
		{
			"bufferView":4,
			"componentType":5126,
			"count":40,
			"max":[
				1.0048545598983765,
				0.1429600864648819,
				0.1875
			],
			"min":[
				0.8813381195068359,
				-0.021853849291801453,
				-0.1875
			],
			"type":"VEC3"
		},
		{
			"bufferView":5,
			"componentType":5126,
			"count":40,
			"type":"VEC3"
		},
		{
			"bufferView":6,
			"componentType":5126,
			"count":40,
			"type":"VEC2"
		},
		{
			"bufferView":7,
			"componentType":5123,
			"count":72,
			"type":"SCALAR"
		},
		{
			"bufferView":8,
			"componentType":5126,
			"count":16,
			"max":[
				0.8813381195068359,
				0.1154910996556282,
				0.125
			],
			"min":[
				0.75,
				0.005615144968032837,
				-0.125
			],
			"type":"VEC3"
		},
		{
			"bufferView":9,
			"componentType":5126,
			"count":16,
			"type":"VEC3"
		},
		{
			"bufferView":10,
			"componentType":5126,
			"count":16,
			"type":"VEC2"
		},
		{
			"bufferView":11,
			"componentType":5123,
			"count":24,
			"type":"SCALAR"
		},
		{
			"bufferView":12,
			"componentType":5126,
			"count":76,
			"max":[
				0.5,
				0.23302863538265228,
				1
			],
			"min":[
				-1,
				0.08109147846698761,
				-1
			],
			"type":"VEC3"
		},
		{
			"bufferView":13,
			"componentType":5126,
			"count":76,
			"type":"VEC3"
		},
		{
			"bufferView":14,
			"componentType":5126,
			"count":76,
			"type":"VEC2"
		},
		{
			"bufferView":15,
			"componentType":5123,
			"count":132,
			"type":"SCALAR"
		},
		{
			"bufferView":16,
			"componentType":5126,
			"count":164,
			"max":[
				1.0022567510604858,
				0.3704290986061096,
				0.4251173734664917
			],
			"min":[
				-0.4999999701976776,
				-0.04932284355163574,
				-0.4251173734664917
			],
			"type":"VEC3"
		},
		{
			"bufferView":17,
			"componentType":5126,
			"count":164,
			"type":"VEC3"
		},
		{
			"bufferView":18,
			"componentType":5126,
			"count":164,
			"type":"VEC2"
		},
		{
			"bufferView":19,
			"componentType":5123,
			"count":372,
			"type":"SCALAR"
		},
		{
			"bufferView":20,
			"componentType":5126,
			"count":6,
			"max":[
				0.5,
				0.23256415128707886,
				1
			],
			"min":[
				-0.10000000149011612,
				0.19996055960655212,
				1
			],
			"type":"VEC3"
		},
		{
			"bufferView":21,
			"componentType":5126,
			"count":6,
			"type":"VEC3"
		},
		{
			"bufferView":22,
			"componentType":5126,
			"count":6,
			"type":"VEC2"
		},
		{
			"bufferView":23,
			"componentType":5123,
			"count":12,
			"type":"SCALAR"
		}
	],
	"bufferViews":[
		{
			"buffer":0,
			"byteLength":3480,
			"byteOffset":0,
			"target":34962
		},
		{
			"buffer":0,
			"byteLength":3480,
			"byteOffset":3480,
			"target":34962
		},
		{
			"buffer":0,
			"byteLength":2320,
			"byteOffset":6960,
			"target":34962
		},
		{
			"buffer":0,
			"byteLength":1464,
			"byteOffset":9280,
			"target":34963
		},
		{
			"buffer":0,
			"byteLength":480,
			"byteOffset":10744,
			"target":34962
		},
		{
			"buffer":0,
			"byteLength":480,
			"byteOffset":11224,
			"target":34962
		},
		{
			"buffer":0,
			"byteLength":320,
			"byteOffset":11704,
			"target":34962
		},
		{
			"buffer":0,
			"byteLength":144,
			"byteOffset":12024,
			"target":34963
		},
		{
			"buffer":0,
			"byteLength":192,
			"byteOffset":12168,
			"target":34962
		},
		{
			"buffer":0,
			"byteLength":192,
			"byteOffset":12360,
			"target":34962
		},
		{
			"buffer":0,
			"byteLength":128,
			"byteOffset":12552,
			"target":34962
		},
		{
			"buffer":0,
			"byteLength":48,
			"byteOffset":12680,
			"target":34963
		},
		{
			"buffer":0,
			"byteLength":912,
			"byteOffset":12728,
			"target":34962
		},
		{
			"buffer":0,
			"byteLength":912,
			"byteOffset":13640,
			"target":34962
		},
		{
			"buffer":0,
			"byteLength":608,
			"byteOffset":14552,
			"target":34962
		},
		{
			"buffer":0,
			"byteLength":264,
			"byteOffset":15160,
			"target":34963
		},
		{
			"buffer":0,
			"byteLength":1968,
			"byteOffset":15424,
			"target":34962
		},
		{
			"buffer":0,
			"byteLength":1968,
			"byteOffset":17392,
			"target":34962
		},
		{
			"buffer":0,
			"byteLength":1312,
			"byteOffset":19360,
			"target":34962
		},
		{
			"buffer":0,
			"byteLength":744,
			"byteOffset":20672,
			"target":34963
		},
		{
			"buffer":0,
			"byteLength":72,
			"byteOffset":21416,
			"target":34962
		},
		{
			"buffer":0,
			"byteLength":72,
			"byteOffset":21488,
			"target":34962
		},
		{
			"buffer":0,
			"byteLength":48,
			"byteOffset":21560,
			"target":34962
		},
		{
			"buffer":0,
			"byteLength":24,
			"byteOffset":21608,
			"target":34963
		}
	],
	"buffers":[
		{
			"byteLength":21632,
			"uri":"player_spaceship.bin"
		}
	]
}
