{
	"asset":{
		"generator":"Khronos glTF Blender I/O v4.1.62",
		"version":"2.0"
	},
	"scene":0,
	"scenes":[
		{
			"name":"Scene",
			"nodes":[
				0
			]
		}
	],
	"nodes":[
		{
			"mesh":0,
			"name":"space_rock"
		}
	],
	"materials":[
		{
			"doubleSided":true,
			"name":"material_black",
			"pbrMetallicRoughness":{
				"baseColorFactor":[
					0.008023137226700783,
					0.008568133227527142,
					0.010329825803637505,
					1
				],
				"metallicFactor":0,
				"roughnessFactor":0.5
			}
		},
		{
			"doubleSided":true,
			"name":"material_white",
			"pbrMetallicRoughness":{
				"baseColorFactor":[
					0.955967128276825,
					0.9822514057159424,
					1,
					1
				],
				"metallicFactor":0,
				"roughnessFactor":0.5
			}
		},
		{
			"doubleSided":true,
			"name":"material_bright_space_blue",
			"pbrMetallicRoughness":{
				"baseColorFactor":[
					0,
					0.1878209412097931,
					0.31854692101478577,
					1
				],
				"metallicFactor":0,
				"roughnessFactor":0.5
			}
		},
		{
			"doubleSided":true,
			"name":"material_dark_space_blue",
			"pbrMetallicRoughness":{
				"baseColorFactor":[
					0,
					0.021219003945589066,
					0.09989876300096512,
					1
				],
				"metallicFactor":0,
				"roughnessFactor":0.5
			}
		}
	],
	"meshes":[
		{
			"name":"Sphere.003",
			"primitives":[
				{
					"attributes":{
						"POSITION":0,
						"NORMAL":1,
						"TEXCOORD_0":2
					},
					"indices":3,
					"material":0
				},
				{
					"attributes":{
						"POSITION":4,
						"NORMAL":5,
						"TEXCOORD_0":6
					},
					"indices":7,
					"material":1
				},
				{
					"attributes":{
						"POSITION":8,
						"NORMAL":9,
						"TEXCOORD_0":10
					},
					"indices":11,
					"material":2
				},
				{
					"attributes":{
						"POSITION":12,
						"NORMAL":13,
						"TEXCOORD_0":14
					},
					"indices":15,
					"material":3
				}
			]
		}
	],
	"accessors":[
		{
			"bufferView":0,
			"componentType":5126,
			"count":76,
			"max":[
				0.9999999403953552,
				1,
				0.9999998807907104
			],
			"min":[
				-0.9999998807907104,
				-1,
				-0.8660253286361694
			],
			"type":"VEC3"
		},
		{
			"bufferView":1,
			"componentType":5126,
			"count":76,
			"type":"VEC3"
		},
		{
			"bufferView":2,
			"componentType":5126,
			"count":76,
			"type":"VEC2"
		},
		{
			"bufferView":3,
			"componentType":5123,
			"count":84,
			"type":"SCALAR"
		},
		{
			"bufferView":4,
			"componentType":5126,
			"count":92,
			"max":[
				0.9999999403953552,
				1,
				0.8660253286361694
			],
			"min":[
				-0.9999998807907104,
				-1,
				-0.9999998807907104
			],
			"type":"VEC3"
		},
		{
			"bufferView":5,
			"componentType":5126,
			"count":92,
			"type":"VEC3"
		},
		{
			"bufferView":6,
			"componentType":5126,
			"count":92,
			"type":"VEC2"
		},
		{
			"bufferView":7,
			"componentType":5123,
			"count":108,
			"type":"SCALAR"
		},
		{
			"bufferView":8,
			"componentType":5126,
			"count":15,
			"max":[
				0.8660253286361694,
				0.8660253882408142,
				0
			],
			"min":[
				-0.6123723983764648,
				-0.5,
				-0.9999998807907104
			],
			"type":"VEC3"
		},
		{
			"bufferView":9,
			"componentType":5126,
			"count":15,
			"type":"VEC3"
		},
		{
			"bufferView":10,
			"componentType":5126,
			"count":15,
			"type":"VEC2"
		},
		{
			"bufferView":11,
			"componentType":5123,
			"count":15,
			"type":"SCALAR"
		},
		{
			"bufferView":12,
			"componentType":5126,
			"count":31,
			"max":[
				0.9999999403953552,
				1,
				0.9999998807907104
			],
			"min":[
				-0.7071067094802856,
				-0.5,
				-0.4999999403953552
			],
			"type":"VEC3"
		},
		{
			"bufferView":13,
			"componentType":5126,
			"count":31,
			"type":"VEC3"
		},
		{
			"bufferView":14,
			"componentType":5126,
			"count":31,
			"type":"VEC2"
		},
		{
			"bufferView":15,
			"componentType":5123,
			"count":33,
			"type":"SCALAR"
		}
	],
	"bufferViews":[
		{
			"buffer":0,
			"byteLength":912,
			"byteOffset":0,
			"target":34962
		},
		{
			"buffer":0,
			"byteLength":912,
			"byteOffset":912,
			"target":34962
		},
		{
			"buffer":0,
			"byteLength":608,
			"byteOffset":1824,
			"target":34962
		},
		{
			"buffer":0,
			"byteLength":168,
			"byteOffset":2432,
			"target":34963
		},
		{
			"buffer":0,
			"byteLength":1104,
			"byteOffset":2600,
			"target":34962
		},
		{
			"buffer":0,
			"byteLength":1104,
			"byteOffset":3704,
			"target":34962
		},
		{
			"buffer":0,
			"byteLength":736,
			"byteOffset":4808,
			"target":34962
		},
		{
			"buffer":0,
			"byteLength":216,
			"byteOffset":5544,
			"target":34963
		},
		{
			"buffer":0,
			"byteLength":180,
			"byteOffset":5760,
			"target":34962
		},
		{
			"buffer":0,
			"byteLength":180,
			"byteOffset":5940,
			"target":34962
		},
		{
			"buffer":0,
			"byteLength":120,
			"byteOffset":6120,
			"target":34962
		},
		{
			"buffer":0,
			"byteLength":30,
			"byteOffset":6240,
			"target":34963
		},
		{
			"buffer":0,
			"byteLength":372,
			"byteOffset":6272,
			"target":34962
		},
		{
			"buffer":0,
			"byteLength":372,
			"byteOffset":6644,
			"target":34962
		},
		{
			"buffer":0,
			"byteLength":248,
			"byteOffset":7016,
			"target":34962
		},
		{
			"buffer":0,
			"byteLength":66,
			"byteOffset":7264,
			"target":34963
		}
	],
	"buffers":[
		{
			"byteLength":7332,
			"uri":"space_rock.bin"
		}
	]
}
