{
	"asset":{
		"generator":"Khronos glTF Blender I/O v4.1.62",
		"version":"2.0"
	},
	"scene":0,
	"scenes":[
		{
			"name":"Scene",
			"nodes":[
				0
			]
		}
	],
	"nodes":[
		{
			"mesh":0,
			"name":"space_planet_b",
			"scale":[
				5,
				5,
				5
			]
		}
	],
	"materials":[
		{
			"doubleSided":true,
			"name":"material_dark_red",
			"pbrMetallicRoughness":{
				"baseColorFactor":[
					0.2122296541929245,
					0.0018211320275440812,
					0.015996303409337997,
					1
				],
				"metallicFactor":0,
				"roughnessFactor":0.5
			}
		},
		{
			"doubleSided":true,
			"name":"material_bright_red",
			"pbrMetallicRoughness":{
				"baseColorFactor":[
					0.6724398732185364,
					0.01764189638197422,
					0.0056054117158055305,
					1
				],
				"metallicFactor":0,
				"roughnessFactor":0.5
			}
		},
		{
			"doubleSided":true,
			"name":"material_orange",
			"pbrMetallicRoughness":{
				"baseColorFactor":[
					1,
					0.2307402789592743,
					0.019382433965802193,
					1
				],
				"metallicFactor":0,
				"roughnessFactor":0.5
			}
		}
	],
	"meshes":[
		{
			"name":"Sphere.006",
			"primitives":[
				{
					"attributes":{
						"POSITION":0,
						"NORMAL":1,
						"TEXCOORD_0":2
					},
					"indices":3,
					"material":0
				},
				{
					"attributes":{
						"POSITION":4,
						"NORMAL":5,
						"TEXCOORD_0":6
					},
					"indices":7,
					"material":1
				},
				{
					"attributes":{
						"POSITION":8,
						"NORMAL":9,
						"TEXCOORD_0":10
					},
					"indices":11,
					"material":2
				}
			]
		}
	],
	"accessors":[
		{
			"bufferView":0,
			"componentType":5126,
			"count":100,
			"max":[
				0.9999999403953552,
				1,
				0.9999998807907104
			],
			"min":[
				-0.8660253286361694,
				-1,
				-0.9999998807907104
			],
			"type":"VEC3"
		},
		{
			"bufferView":1,
			"componentType":5126,
			"count":100,
			"type":"VEC3"
		},
		{
			"bufferView":2,
			"componentType":5126,
			"count":100,
			"type":"VEC2"
		},
		{
			"bufferView":3,
			"componentType":5123,
			"count":114,
			"type":"SCALAR"
		},
		{
			"bufferView":4,
			"componentType":5126,
			"count":18,
			"max":[
				0.3535533547401428,
				0.8660253882408142,
				0.8660253286361694
			],
			"min":[
				-0.9999998807907104,
				-0.5,
				-0.6123723983764648
			],
			"type":"VEC3"
		},
		{
			"bufferView":5,
			"componentType":5126,
			"count":18,
			"type":"VEC3"
		},
		{
			"bufferView":6,
			"componentType":5126,
			"count":18,
			"type":"VEC2"
		},
		{
			"bufferView":7,
			"componentType":5123,
			"count":18,
			"type":"SCALAR"
		},
		{
			"bufferView":8,
			"componentType":5126,
			"count":84,
			"max":[
				0.9999999403953552,
				0.8660253882408142,
				0.9999998807907104
			],
			"min":[
				-0.9999998807907104,
				-0.8660253882408142,
				-0.9999998807907104
			],
			"type":"VEC3"
		},
		{
			"bufferView":9,
			"componentType":5126,
			"count":84,
			"type":"VEC3"
		},
		{
			"bufferView":10,
			"componentType":5126,
			"count":84,
			"type":"VEC2"
		},
		{
			"bufferView":11,
			"componentType":5123,
			"count":108,
			"type":"SCALAR"
		}
	],
	"bufferViews":[
		{
			"buffer":0,
			"byteLength":1200,
			"byteOffset":0,
			"target":34962
		},
		{
			"buffer":0,
			"byteLength":1200,
			"byteOffset":1200,
			"target":34962
		},
		{
			"buffer":0,
			"byteLength":800,
			"byteOffset":2400,
			"target":34962
		},
		{
			"buffer":0,
			"byteLength":228,
			"byteOffset":3200,
			"target":34963
		},
		{
			"buffer":0,
			"byteLength":216,
			"byteOffset":3428,
			"target":34962
		},
		{
			"buffer":0,
			"byteLength":216,
			"byteOffset":3644,
			"target":34962
		},
		{
			"buffer":0,
			"byteLength":144,
			"byteOffset":3860,
			"target":34962
		},
		{
			"buffer":0,
			"byteLength":36,
			"byteOffset":4004,
			"target":34963
		},
		{
			"buffer":0,
			"byteLength":1008,
			"byteOffset":4040,
			"target":34962
		},
		{
			"buffer":0,
			"byteLength":1008,
			"byteOffset":5048,
			"target":34962
		},
		{
			"buffer":0,
			"byteLength":672,
			"byteOffset":6056,
			"target":34962
		},
		{
			"buffer":0,
			"byteLength":216,
			"byteOffset":6728,
			"target":34963
		}
	],
	"buffers":[
		{
			"byteLength":6944,
			"uri":"space_planet_b.bin"
		}
	]
}
