{
	"asset":{
		"generator":"Khronos glTF Blender I/O v4.1.62",
		"version":"2.0"
	},
	"scene":0,
	"scenes":[
		{
			"name":"Scene",
			"nodes":[
				0
			]
		}
	],
	"nodes":[
		{
			"mesh":0,
			"name":"space_planet",
			"scale":[
				5,
				5,
				5
			]
		}
	],
	"materials":[
		{
			"doubleSided":true,
			"name":"material_white",
			"pbrMetallicRoughness":{
				"baseColorFactor":[
					0.955967128276825,
					0.9822514057159424,
					1,
					1
				],
				"metallicFactor":0,
				"roughnessFactor":0.5
			}
		},
		{
			"doubleSided":true,
			"name":"material_green",
			"pbrMetallicRoughness":{
				"baseColorFactor":[
					0.00518082408234477,
					0.6444805860519409,
					0.17788860201835632,
					1
				],
				"metallicFactor":0,
				"roughnessFactor":0.5
			}
		},
		{
			"doubleSided":true,
			"name":"material_bright_space_blue",
			"pbrMetallicRoughness":{
				"baseColorFactor":[
					0,
					0.1878209412097931,
					0.31854692101478577,
					1
				],
				"metallicFactor":0,
				"roughnessFactor":0.5
			}
		}
	],
	"meshes":[
		{
			"name":"Sphere.001",
			"primitives":[
				{
					"attributes":{
						"POSITION":0,
						"NORMAL":1,
						"TEXCOORD_0":2
					},
					"indices":3,
					"material":0
				},
				{
					"attributes":{
						"POSITION":4,
						"NORMAL":5,
						"TEXCOORD_0":6
					},
					"indices":7,
					"material":1
				},
				{
					"attributes":{
						"POSITION":8,
						"NORMAL":9,
						"TEXCOORD_0":10
					},
					"indices":11,
					"material":2
				}
			]
		}
	],
	"accessors":[
		{
			"bufferView":0,
			"componentType":5126,
			"count":96,
			"max":[
				0.9999999403953552,
				1,
				0.9999998807907104
			],
			"min":[
				-0.9999998807907104,
				-1,
				-0.8660253286361694
			],
			"type":"VEC3"
		},
		{
			"bufferView":1,
			"componentType":5126,
			"count":96,
			"type":"VEC3"
		},
		{
			"bufferView":2,
			"componentType":5126,
			"count":96,
			"type":"VEC2"
		},
		{
			"bufferView":3,
			"componentType":5123,
			"count":96,
			"type":"SCALAR"
		},
		{
			"bufferView":4,
			"componentType":5126,
			"count":69,
			"max":[
				0.9999999403953552,
				0.8660253882408142,
				0.9999998807907104
			],
			"min":[
				-0.9999998807907104,
				-0.8660253882408142,
				-0.9999998807907104
			],
			"type":"VEC3"
		},
		{
			"bufferView":5,
			"componentType":5126,
			"count":69,
			"type":"VEC3"
		},
		{
			"bufferView":6,
			"componentType":5126,
			"count":69,
			"type":"VEC2"
		},
		{
			"bufferView":7,
			"componentType":5123,
			"count":87,
			"type":"SCALAR"
		},
		{
			"bufferView":8,
			"componentType":5126,
			"count":49,
			"max":[
				0.9999999403953552,
				0.8660253882408142,
				0.8660253286361694
			],
			"min":[
				-0.9999998807907104,
				-0.8660253882408142,
				-0.8660253286361694
			],
			"type":"VEC3"
		},
		{
			"bufferView":9,
			"componentType":5126,
			"count":49,
			"type":"VEC3"
		},
		{
			"bufferView":10,
			"componentType":5126,
			"count":49,
			"type":"VEC2"
		},
		{
			"bufferView":11,
			"componentType":5123,
			"count":57,
			"type":"SCALAR"
		}
	],
	"bufferViews":[
		{
			"buffer":0,
			"byteLength":1152,
			"byteOffset":0,
			"target":34962
		},
		{
			"buffer":0,
			"byteLength":1152,
			"byteOffset":1152,
			"target":34962
		},
		{
			"buffer":0,
			"byteLength":768,
			"byteOffset":2304,
			"target":34962
		},
		{
			"buffer":0,
			"byteLength":192,
			"byteOffset":3072,
			"target":34963
		},
		{
			"buffer":0,
			"byteLength":828,
			"byteOffset":3264,
			"target":34962
		},
		{
			"buffer":0,
			"byteLength":828,
			"byteOffset":4092,
			"target":34962
		},
		{
			"buffer":0,
			"byteLength":552,
			"byteOffset":4920,
			"target":34962
		},
		{
			"buffer":0,
			"byteLength":174,
			"byteOffset":5472,
			"target":34963
		},
		{
			"buffer":0,
			"byteLength":588,
			"byteOffset":5648,
			"target":34962
		},
		{
			"buffer":0,
			"byteLength":588,
			"byteOffset":6236,
			"target":34962
		},
		{
			"buffer":0,
			"byteLength":392,
			"byteOffset":6824,
			"target":34962
		},
		{
			"buffer":0,
			"byteLength":114,
			"byteOffset":7216,
			"target":34963
		}
	],
	"buffers":[
		{
			"byteLength":7332,
			"uri":"space_planet_a.bin"
		}
	]
}
