{
	"asset":{
		"generator":"Khronos glTF Blender I/O v4.1.62",
		"version":"2.0"
	},
	"scene":0,
	"scenes":[
		{
			"name":"Scene",
			"nodes":[
				0
			]
		}
	],
	"nodes":[
		{
			"mesh":0,
			"name":"space_planet_c",
			"scale":[
				5,
				5,
				5
			]
		}
	],
	"materials":[
		{
			"doubleSided":true,
			"name":"material_violet",
			"pbrMetallicRoughness":{
				"baseColorFactor":[
					0.05612812936306,
					0,
					0.13563339412212372,
					1
				],
				"metallicFactor":0,
				"roughnessFactor":0.5
			}
		},
		{
			"doubleSided":true,
			"name":"material_dark_sky_blue",
			"pbrMetallicRoughness":{
				"baseColorFactor":[
					0.01680712029337883,
					0.06662598997354507,
					0.17788846790790558,
					1
				],
				"metallicFactor":0,
				"roughnessFactor":0.5
			}
		},
		{
			"doubleSided":true,
			"name":"material_light_sky_blue",
			"pbrMetallicRoughness":{
				"baseColorFactor":[
					0.1384301483631134,
					0.4232679009437561,
					0.658375084400177,
					1
				],
				"metallicFactor":0,
				"roughnessFactor":0.5
			}
		},
		{
			"doubleSided":true,
			"name":"material_bright_space_blue",
			"pbrMetallicRoughness":{
				"baseColorFactor":[
					0,
					0.1878209412097931,
					0.31854692101478577,
					1
				],
				"metallicFactor":0,
				"roughnessFactor":0.5
			}
		}
	],
	"meshes":[
		{
			"name":"Sphere.007",
			"primitives":[
				{
					"attributes":{
						"POSITION":0,
						"NORMAL":1,
						"TEXCOORD_0":2
					},
					"indices":3,
					"material":0
				},
				{
					"attributes":{
						"POSITION":4,
						"NORMAL":5,
						"TEXCOORD_0":6
					},
					"indices":7,
					"material":1
				},
				{
					"attributes":{
						"POSITION":8,
						"NORMAL":9,
						"TEXCOORD_0":10
					},
					"indices":11,
					"material":2
				},
				{
					"attributes":{
						"POSITION":12,
						"NORMAL":13,
						"TEXCOORD_0":14
					},
					"indices":15,
					"material":3
				}
			]
		}
	],
	"accessors":[
		{
			"bufferView":0,
			"componentType":5126,
			"count":40,
			"max":[
				0.9999999403953552,
				0.8660253882408142,
				0.9999998807907104
			],
			"min":[
				-0.8660253286361694,
				-0.5,
				-0.9999998807907104
			],
			"type":"VEC3"
		},
		{
			"bufferView":1,
			"componentType":5126,
			"count":40,
			"type":"VEC3"
		},
		{
			"bufferView":2,
			"componentType":5126,
			"count":40,
			"type":"VEC2"
		},
		{
			"bufferView":3,
			"componentType":5123,
			"count":42,
			"type":"SCALAR"
		},
		{
			"bufferView":4,
			"componentType":5126,
			"count":117,
			"max":[
				0.9999999403953552,
				0.8660253882408142,
				0.9999998807907104
			],
			"min":[
				-0.9999998807907104,
				-1,
				-0.9999998807907104
			],
			"type":"VEC3"
		},
		{
			"bufferView":5,
			"componentType":5126,
			"count":117,
			"type":"VEC3"
		},
		{
			"bufferView":6,
			"componentType":5126,
			"count":117,
			"type":"VEC2"
		},
		{
			"bufferView":7,
			"componentType":5123,
			"count":141,
			"type":"SCALAR"
		},
		{
			"bufferView":8,
			"componentType":5126,
			"count":42,
			"max":[
				0.4999999701976776,
				1,
				0.6123723983764648
			],
			"min":[
				-0.9999998807907104,
				-0.5,
				-0.8660253286361694
			],
			"type":"VEC3"
		},
		{
			"bufferView":9,
			"componentType":5126,
			"count":42,
			"type":"VEC3"
		},
		{
			"bufferView":10,
			"componentType":5126,
			"count":42,
			"type":"VEC2"
		},
		{
			"bufferView":11,
			"componentType":5123,
			"count":42,
			"type":"SCALAR"
		},
		{
			"bufferView":12,
			"componentType":5126,
			"count":15,
			"max":[
				0.7071067094802856,
				0.5,
				0.9999998807907104
			],
			"min":[
				-0.6123723983764648,
				-0.8660253882408142,
				0
			],
			"type":"VEC3"
		},
		{
			"bufferView":13,
			"componentType":5126,
			"count":15,
			"type":"VEC3"
		},
		{
			"bufferView":14,
			"componentType":5126,
			"count":15,
			"type":"VEC2"
		},
		{
			"bufferView":15,
			"componentType":5123,
			"count":15,
			"type":"SCALAR"
		}
	],
	"bufferViews":[
		{
			"buffer":0,
			"byteLength":480,
			"byteOffset":0,
			"target":34962
		},
		{
			"buffer":0,
			"byteLength":480,
			"byteOffset":480,
			"target":34962
		},
		{
			"buffer":0,
			"byteLength":320,
			"byteOffset":960,
			"target":34962
		},
		{
			"buffer":0,
			"byteLength":84,
			"byteOffset":1280,
			"target":34963
		},
		{
			"buffer":0,
			"byteLength":1404,
			"byteOffset":1364,
			"target":34962
		},
		{
			"buffer":0,
			"byteLength":1404,
			"byteOffset":2768,
			"target":34962
		},
		{
			"buffer":0,
			"byteLength":936,
			"byteOffset":4172,
			"target":34962
		},
		{
			"buffer":0,
			"byteLength":282,
			"byteOffset":5108,
			"target":34963
		},
		{
			"buffer":0,
			"byteLength":504,
			"byteOffset":5392,
			"target":34962
		},
		{
			"buffer":0,
			"byteLength":504,
			"byteOffset":5896,
			"target":34962
		},
		{
			"buffer":0,
			"byteLength":336,
			"byteOffset":6400,
			"target":34962
		},
		{
			"buffer":0,
			"byteLength":84,
			"byteOffset":6736,
			"target":34963
		},
		{
			"buffer":0,
			"byteLength":180,
			"byteOffset":6820,
			"target":34962
		},
		{
			"buffer":0,
			"byteLength":180,
			"byteOffset":7000,
			"target":34962
		},
		{
			"buffer":0,
			"byteLength":120,
			"byteOffset":7180,
			"target":34962
		},
		{
			"buffer":0,
			"byteLength":30,
			"byteOffset":7300,
			"target":34963
		}
	],
	"buffers":[
		{
			"byteLength":7332,
			"uri":"space_planet_c.bin"
		}
	]
}
